<svg xmlns="http://www.w3.org/2000/svg" width="800" height="800" viewBox="0 0 30 30">
  <path d="M 10,19.9 L 10.1,20 L 10.275,20 L 10.45,20 L 10.625,20 L 10.8,20 L 10.975,20 L 11.15,20 L 11.325,20 L 11.5,20 L 11.675,20 L 11.85,20 L 12.025,20 L 12.2,20 L 12.375,20 L 12.55,20 L 12.725,20 L 12.9,20 L 13.075,20 L 13.25,20 L 13.425,20 L 13.6,20 L 13.775,20 L 13.95,20 L 14.125,20 L 14.3,20 L 14.475,20 L 14.65,20 L 14.825,20 L 15,20 L 15.175,20 L 15.35,20 L 15.525,20 L 15.7,20 L 15.875,20 L 16.05,20 L 16.225,20 L 16.4,20 L 16.575,20 L 16.75,20 L 16.925,20 L 17.1,20 L 17.275,20 L 17.45,20 L 17.625,20 L 17.8,20 L 17.975,20 L 18.15,20 L 18.325,20 L 18.5,20 L 18.675,20 L 18.85,20 L 19.025,20 L 19.2,20 L 19.375,20 L 19.55,20 L 19.725,20 L 19.9,20 L 20,19.9 L 20,19.725 L 20,19.55 L 20,19.375 L 20,19.2 L 20,19.025 L 20,18.85 L 20,18.675 L 20,18.5 L 20,18.325 L 20,18.15 L 20,17.975 L 20,17.8 L 20,17.625 L 20,17.45 L 20,17.275 L 20,17.1 L 20,16.925 L 20,16.75 L 20,16.575 L 20,16.4 L 20,16.225 L 20,16.05 L 20,15.875 L 20,15.7 L 20,15.525 L 20,15.35 L 20,15.175 L 20,15 L 20,14.825 L 20,14.65 L 20,14.475 L 20,14.3 L 20,14.125 L 20,13.95 L 20,13.775 L 20,13.6 L 20,13.425 L 20,13.25 L 20,13.075 L 20,12.9 L 20,12.725 L 20,12.55 L 20,12.375 L 20,12.2 L 20,12.025 L 20,11.85 L 20,11.675 L 20,11.5 L 20,11.325 L 20,11.15 L 20,10.975 L 20,10.8 L 20,10.625 L 20,10.45 L 20,10.275 L 20,10.1 L 19.9,10 L 19.725,10 L 19.55,10 L 19.375,10 L 19.2,10 L 19.025,10 L 18.85,10 L 18.675,10 L 18.5,10 L 18.325,10 L 18.15,10 L 17.975,10 L 17.8,10 L 17.625,10 L 17.45,10 L 17.275,10 L 17.1,10 L 16.925,10 L 16.75,10 L 16.575,10 L 16.4,10 L 16.225,10 L 16.05,10 L 15.875,10 L 15.7,10 L 15.525,10 L 15.35,10 L 15.175,10 L 15,10 L 14.825,10 L 14.65,10 L 14.475,10 L 14.3,10 L 14.125,10 L 13.95,10 L 13.775,10 L 13.6,10 L 13.425,10 L 13.25,10 L 13.075,10 L 12.9,10 L 12.725,10 L 12.55,10 L 12.375,10 L 12.2,10 L 12.025,10 L 11.85,10 L 11.675,10 L 11.5,10 L 11.325,10 L 11.15,10 L 10.975,10 L 10.8,10 L 10.625,10 L 10.45,10 L 10.275,10 L 10.1,10 L 10,10.1 L 10,10.275 L 10,10.45 L 10,10.625 L 10,10.8 L 10,10.975 L 10,11.15 L 10,11.325 L 10,11.5 L 10,11.675 L 10,11.85 L 10,12.025 L 10,12.2 L 10,12.375 L 10,12.55 L 10,12.725 L 10,12.9 L 10,13.075 L 10,13.25 L 10,13.425 L 10,13.6 L 10,13.775 L 10,13.95 L 10,14.125 L 10,14.3 L 10,14.475 L 10,14.65 L 10,14.825 L 10,15 L 10,15.175 L 10,15.35 L 10,15.525 L 10,15.7 L 10,15.875 L 10,16.05 L 10,16.225 L 10,16.4 L 10,16.575 L 10,16.75 L 10,16.925 L 10,17.1 L 10,17.275 L 10,17.45 L 10,17.625 L 10,17.8 L 10,17.975 L 10,18.15 L 10,18.325 L 10,18.5 L 10,18.675 L 10,18.85 L 10,19.025 L 10,19.2 L 10,19.375 L 10,19.55 L 10,19.725 Z M 13.075,17 L 13,16.925 L 13,16.75 L 13,16.575 L 13,16.4 L 13,16.225 L 13,16.05 L 13,15.875 L 13,15.7 L 13,15.525 L 13,15.35 L 13,15.175 L 13,15 L 13,14.825 L 13,14.65 L 13,14.475 L 13,14.3 L 13,14.125 L 13,13.95 L 13,13.775 L 13,13.6 L 13,13.425 L 13,13.25 L 13,13.075 L 13.075,13 L 13.25,13 L 13.425,13 L 13.6,13 L 13.775,13 L 13.95,13 L 14.125,13 L 14.3,13 L 14.475,13 L 14.65,13 L 14.825,13 L 15,13 L 15.175,13 L 15.35,13 L 15.525,13 L 15.7,13 L 15.875,13 L 16.05,13 L 16.225,13 L 16.4,13 L 16.575,13 L 16.75,13 L 16.925,13 L 17,13.075 L 17,13.25 L 17,13.425 L 17,13.6 L 17,13.775 L 17,13.95 L 17,14.125 L 17,14.3 L 17,14.475 L 17,14.65 L 17,14.825 L 17,15 L 17,15.175 L 17,15.35 L 17,15.525 L 17,15.7 L 17,15.875 L 17,16.05 L 17,16.225 L 17,16.4 L 17,16.575 L 17,16.75 L 17,16.925 L 16.925,17 L 16.75,17 L 16.575,17 L 16.4,17 L 16.225,17 L 16.05,17 L 15.875,17 L 15.7,17 L 15.525,17 L 15.35,17 L 15.175,17 L 15,17 L 14.825,17 L 14.65,17 L 14.475,17 L 14.3,17 L 14.125,17 L 13.95,17 L 13.775,17 L 13.6,17 L 13.425,17 L 13.25,17 Z " fill-rule="evenodd" fill="#22c55e" stroke="black" stroke-width="0.05"/>
</svg>
