<svg xmlns="http://www.w3.org/2000/svg" width="220" height="220" viewBox="0 0 32 32">
  <line x1="10" y1="22" x2="22" y2="22" stroke="#9ca3af" stroke-width="0.08" stroke-dasharray="0,0.24" stroke-linecap="round"/>
  <line x1="10" y1="19" x2="22" y2="19" stroke="#9ca3af" stroke-width="0.08" stroke-dasharray="0,0.24" stroke-linecap="round"/>
  <line x1="10" y1="16" x2="22" y2="16" stroke="#9ca3af" stroke-width="0.08" stroke-dasharray="0,0.24" stroke-linecap="round"/>
  <line x1="10" y1="13" x2="22" y2="13" stroke="#9ca3af" stroke-width="0.08" stroke-dasharray="0,0.24" stroke-linecap="round"/>
  <line x1="10" y1="10" x2="22" y2="10" stroke="#9ca3af" stroke-width="0.08" stroke-dasharray="0,0.24" stroke-linecap="round"/>
  <line x1="10" y1="22" x2="10" y2="10" stroke="#9ca3af" stroke-width="0.08" stroke-dasharray="0,0.24" stroke-linecap="round"/>
  <line x1="13" y1="22" x2="13" y2="10" stroke="#9ca3af" stroke-width="0.08" stroke-dasharray="0,0.24" stroke-linecap="round"/>
  <line x1="16" y1="22" x2="16" y2="10" stroke="#9ca3af" stroke-width="0.08" stroke-dasharray="0,0.24" stroke-linecap="round"/>
  <line x1="19" y1="22" x2="19" y2="10" stroke="#9ca3af" stroke-width="0.08" stroke-dasharray="0,0.24" stroke-linecap="round"/>
  <line x1="22" y1="22" x2="22" y2="10" stroke="#9ca3af" stroke-width="0.08" stroke-dasharray="0,0.24" stroke-linecap="round"/>
  <circle cx="10" cy="22" r="0.24" fill="#f5c1c1" stroke="#374151" stroke-width="0.072"/>
  <circle cx="13" cy="22" r="0.24" fill="#f8d3d3" stroke="#374151" stroke-width="0.072"/>
  <circle cx="16" cy="22" r="0.24" fill="#f8d3d3" stroke="#374151" stroke-width="0.072"/>
  <circle cx="19" cy="22" r="0.24" fill="#f8d3d3" stroke="#374151" stroke-width="0.072"/>
  <circle cx="22" cy="22" r="0.24" fill="#f5c1c1" stroke="#374151" stroke-width="0.072"/>
  <circle cx="10" cy="19" r="0.24" fill="#f8d3d3" stroke="#374151" stroke-width="0.072"/>
  <circle cx="13" cy="19" r="0.24" fill="#a7c0f7" stroke="#374151" stroke-width="0.072"/>
  <circle cx="16" cy="19" r="0.24" fill="#a7c0f7" stroke="#374151" stroke-width="0.072"/>
  <circle cx="19" cy="19" r="0.24" fill="#a7c0f7" stroke="#374151" stroke-width="0.072"/>
  <circle cx="22" cy="19" r="0.24" fill="#f8d3d3" stroke="#374151" stroke-width="0.072"/>
  <circle cx="10" cy="16" r="0.24" fill="#f8d3d3" stroke="#374151" stroke-width="0.072"/>
  <circle cx="13" cy="16" r="0.24" fill="#a7c0f7" stroke="#374151" stroke-width="0.072"/>
  <circle cx="16" cy="16" r="0.24" fill="#2563eb" stroke="#374151" stroke-width="0.072"/>
  <circle cx="19" cy="16" r="0.24" fill="#a7c0f7" stroke="#374151" stroke-width="0.072"/>
  <circle cx="22" cy="16" r="0.24" fill="#f8d3d3" stroke="#374151" stroke-width="0.072"/>
  <circle cx="10" cy="13" r="0.24" fill="#f8d3d3" stroke="#374151" stroke-width="0.072"/>
  <circle cx="13" cy="13" r="0.24" fill="#a7c0f7" stroke="#374151" stroke-width="0.072"/>
  <circle cx="16" cy="13" r="0.24" fill="#a7c0f7" stroke="#374151" stroke-width="0.072"/>
  <circle cx="19" cy="13" r="0.24" fill="#a7c0f7" stroke="#374151" stroke-width="0.072"/>
  <circle cx="22" cy="13" r="0.24" fill="#f8d3d3" stroke="#374151" stroke-width="0.072"/>
  <circle cx="10" cy="10" r="0.24" fill="#f5c1c1" stroke="#374151" stroke-width="0.072"/>
  <circle cx="13" cy="10" r="0.24" fill="#f8d3d3" stroke="#374151" stroke-width="0.072"/>
  <circle cx="16" cy="10" r="0.24" fill="#f8d3d3" stroke="#374151" stroke-width="0.072"/>
  <circle cx="19" cy="10" r="0.24" fill="#f8d3d3" stroke="#374151" stroke-width="0.072"/>
  <circle cx="22" cy="10" r="0.24" fill="#f5c1c1" stroke="#374151" stroke-width="0.072"/>
  <path d="M 12,20 L 14.5,21 L 17.5,21 L 20,20 L 21,17.5 L 21,14.5 L 20,12 L 17.5,11 L 14.5,11 L 12,12 L 11,14.5 L 11,17.5 Z " fill-rule="evenodd" fill="none" stroke="#2563eb" stroke-width="0.08"/>
</svg>
